<svg width="16" height="16" viewBox="0 0 16 16" fill="none" xmlns="http://www.w3.org/2000/svg">
<path d="M10.4306 12.0099C10.7165 13.0768 10.0833 14.1735 9.01642 14.4594C7.94948 14.7453 6.85281 14.1121 6.56693 13.0452M1.37124 7.74227C1.11158 6.81015 1.38161 5.80239 2.07254 5.12498M8.09756 3.82729C8.30037 3.46243 8.36717 3.02143 8.2506 2.58636C8.01236 1.69725 7.09847 1.16961 6.20936 1.40785C5.32025 1.64609 4.79261 2.55998 5.03084 3.44909C5.14742 3.88416 5.42577 4.23267 5.78384 4.44725M13.546 4.48006C13.3048 3.54299 12.5671 2.80526 11.63 2.56407M11.6604 6.29692C11.4225 5.40883 10.7872 4.66619 9.89435 4.23236C9.0015 3.79854 7.92422 3.70908 6.8995 3.98365C5.87478 4.25822 4.98656 4.87434 4.43024 5.69647C3.87392 6.51859 3.69507 7.47938 3.93303 8.36747C4.32675 9.83684 4.2503 11.0091 4.00166 11.8999C3.71829 12.9151 3.5766 13.4227 3.61488 13.5246C3.65867 13.6413 3.69035 13.6733 3.80651 13.7183C3.90803 13.7576 4.33455 13.6433 5.18757 13.4148L13.0976 11.2953C13.9506 11.0667 14.3772 10.9524 14.4454 10.8676C14.5235 10.7705 14.5349 10.727 14.5146 10.6041C14.4967 10.4967 14.1202 10.1279 13.3672 9.39037C12.7065 8.74326 12.0542 7.76628 11.6604 6.29692Z" stroke="#E4002B" stroke-linecap="round" stroke-linejoin="round"/>
</svg>
