<svg width="130" height="24" viewBox="0 0 170 30" fill="none"
    xmlns="http://www.w3.org/2000/svg">
    <path fill-rule="evenodd" clip-rule="evenodd" d="M170 24.3244C169.185 25.8921 168.092 27.1396 166.723 28.0698C165.357 29.0002 163.785 29.4648 162.008 29.4648C160.442 29.4648 159.072 29.1866 157.893 28.6279C156.718 28.0698 155.746 27.3131 154.984 26.3564C154.22 25.3999 153.652 24.2838 153.277 23.0093C152.902 21.7331 152.714 20.3856 152.714 18.9634C152.714 17.6892 152.914 16.4338 153.316 15.211C153.717 13.9762 154.306 12.8729 155.082 11.8902C155.831 10.9469 156.763 10.1899 157.874 9.60465C158.985 9.03403 160.233 8.74261 161.614 8.74261C163.035 8.74261 164.249 8.96714 165.263 9.41954C166.276 9.87102 167.099 10.489 167.73 11.2734C168.336 12.0173 168.787 12.8927 169.081 13.9026C169.378 14.9131 169.525 16.0085 169.525 17.1907V18.5055H156.641C156.641 19.7939 156.763 20.9694 157.006 22.0202C157.25 23.0753 157.634 23.9988 158.16 24.7954C158.675 25.5731 159.344 26.178 160.174 26.6215C161.001 27.0742 161.988 27.2923 163.133 27.2923C164.303 27.2923 165.313 27.0217 166.163 26.463C167.011 25.9052 167.83 24.9081 168.619 23.4675L170 24.3244ZM165.64 16.8295C165.64 16.0857 165.577 15.2881 165.452 14.4444C165.327 13.6019 165.125 12.8898 164.85 12.3189C164.548 11.7141 164.133 11.2091 163.607 10.8312C163.081 10.4454 162.403 10.2539 161.575 10.2539C160.193 10.2539 159.045 10.8312 158.13 11.9936C157.217 13.1495 156.72 14.7633 156.642 16.8295H165.64Z" fill="#4F5254"/>
    <path fill-rule="evenodd" clip-rule="evenodd" d="M150.878 28.9433H141.387V27.6286C141.689 27.602 142.01 27.5748 142.353 27.5351C142.695 27.5088 142.978 27.4551 143.201 27.3897C143.57 27.269 143.847 27.0576 144.031 26.765C144.215 26.4595 144.306 26.0737 144.306 25.596V5.41717C144.306 4.93941 144.204 4.48701 144.001 4.06179C143.798 3.65002 143.531 3.31797 143.201 3.0794C142.965 2.92025 142.531 2.77362 141.9 2.64105C141.268 2.50817 140.761 2.42844 140.38 2.40095V1.12683L147.702 0.688477L147.976 0.986616V25.3571C147.976 25.8208 148.063 26.2072 148.233 26.4989C148.404 26.8053 148.682 27.0301 149.063 27.1899C149.352 27.3228 149.639 27.4224 149.921 27.488C150.203 27.5562 150.523 27.602 150.878 27.6286V28.9433" fill="#4F5254"/>
    <path fill-rule="evenodd" clip-rule="evenodd" d="M139.49 19.1008C139.49 22.0501 138.568 24.5275 136.728 26.5335C134.886 28.5396 132.748 29.5421 130.314 29.5421C129.248 29.5421 128.199 29.3766 127.167 29.0448C126.134 28.7116 125.164 28.2668 124.255 27.7093L122.795 30L121.573 29.7214C121.638 28.7378 121.686 27.5569 121.711 26.1676C121.736 24.7859 121.75 23.4584 121.75 22.162V5.29843C121.75 4.84725 121.648 4.38813 121.445 3.93664C121.24 3.48515 120.981 3.16105 120.666 2.96158C120.416 2.78837 119.998 2.65488 119.413 2.57485C118.826 2.48168 118.355 2.42914 118.002 2.40287V1.12753L125.144 0.689178L125.42 0.987318V11.3495L125.558 11.3889C126.374 10.5125 127.265 9.85514 128.233 9.41679C129.2 8.97752 130.15 8.75941 131.085 8.75941C133.477 8.75941 135.478 9.71584 137.082 11.6287C138.687 13.5419 139.49 16.0321 139.49 19.1008ZM135.367 19.2424C135.367 18.2597 135.26 17.2559 135.049 16.2326C134.84 15.2117 134.511 14.3198 134.064 13.5637C133.616 12.7936 133.031 12.168 132.307 11.6903C131.584 11.2116 130.716 10.9727 129.703 10.9727C128.782 10.9727 127.976 11.1591 127.285 11.5183C126.596 11.8888 125.974 12.3819 125.42 13.005V24.4431C125.5 24.762 125.654 25.1347 125.884 25.5596C126.114 25.9836 126.427 26.3898 126.821 26.7747C127.216 27.1471 127.664 27.4449 128.164 27.6841C128.664 27.9095 129.275 28.0302 129.999 28.0302C131.604 28.0302 132.899 27.2458 133.887 25.6778C134.873 24.111 135.367 21.966 135.367 19.2424Z" fill="#4F5254"/>
    <path fill-rule="evenodd" clip-rule="evenodd" d="M118.109 28.5897C117.491 28.8151 116.948 29.0014 116.481 29.134C116.014 29.2806 115.484 29.3466 114.893 29.3466C113.866 29.3466 113.048 29.1078 112.437 28.6159C111.824 28.137 111.433 27.427 111.262 26.4969H111.144C110.287 27.4545 109.371 28.1843 108.391 28.6893C107.412 29.1942 106.229 29.4462 104.849 29.4462C103.388 29.4462 102.189 28.995 101.249 28.0911C100.306 27.1882 99.8379 26.0063 99.8379 24.5446C99.8379 23.7874 99.9419 23.1104 100.153 22.512C100.363 21.9139 100.678 21.376 101.099 20.8973C101.429 20.4996 101.863 20.1403 102.403 19.8355C102.941 19.5169 103.447 19.2713 103.921 19.0849C104.513 18.8595 105.713 18.4398 107.523 17.8298C109.332 17.2182 110.551 16.7395 111.183 16.3944V14.4222C111.183 14.249 111.148 13.917 111.075 13.4264C111.001 12.9346 110.848 12.4687 110.611 12.0316C110.347 11.5386 109.977 11.1082 109.495 10.7486C109.016 10.3763 108.335 10.1976 107.454 10.1976C106.849 10.1976 106.286 10.2972 105.767 10.5098C105.247 10.7083 104.881 10.9283 104.671 11.1543C104.671 11.4204 104.734 11.8114 104.859 12.3298C104.984 12.8478 105.046 13.3256 105.046 13.7639C105.046 14.2295 104.84 14.6547 104.425 15.039C104.01 15.4248 103.434 15.6175 102.699 15.6175C102.04 15.6175 101.556 15.3842 101.249 14.9064C100.939 14.4421 100.784 13.9106 100.784 13.3256C100.784 12.7153 100.998 12.1303 101.425 11.5725C101.853 11.0147 102.408 10.5165 103.093 10.0781C103.685 9.70576 104.402 9.39357 105.244 9.12842C106.085 8.87519 106.908 8.74261 107.71 8.74261C108.816 8.74261 109.78 8.82265 110.601 8.96836C111.424 9.12842 112.17 9.45375 112.841 9.95778C113.512 10.4508 114.022 11.1201 114.37 11.9571C114.72 12.8075 114.893 13.8898 114.893 15.2189C114.893 17.1195 114.873 18.7981 114.834 20.2738C114.795 21.7343 114.774 23.3426 114.774 25.0826C114.774 25.6006 114.862 26.0127 115.041 26.3182C115.219 26.624 115.492 26.8815 115.86 27.095C116.058 27.2135 116.37 27.281 116.797 27.2945C117.224 27.3067 117.662 27.3143 118.109 27.3143V28.5897ZM111.222 18.0691C110.104 18.4011 109.125 18.7265 108.282 19.0521C107.44 19.3719 106.658 19.7696 105.934 20.2471C105.276 20.6998 104.757 21.2301 104.375 21.8557C103.995 22.4725 103.804 23.2108 103.804 24.06C103.804 25.1633 104.089 25.9728 104.661 26.4976C105.233 27.0157 105.961 27.2754 106.842 27.2754C107.775 27.2754 108.598 27.0487 109.309 26.5841C110.018 26.1262 110.618 25.5886 111.104 24.9572L111.222 18.0691Z" fill="#4F5254"/>
    <path fill-rule="evenodd" clip-rule="evenodd" d="M97.2925 28.5836L90.9382 29.0217L90.6419 28.7422V26.252H90.5226C90.2074 26.584 89.8528 26.9356 89.4607 27.3214C89.0667 27.6941 88.6115 28.039 88.0997 28.3444C87.5108 28.7028 86.9393 28.9755 86.3866 29.1607C85.834 29.3473 85.0541 29.4402 84.0419 29.4402C82.3218 29.4402 81.013 28.875 80.1116 27.7399C79.213 26.6048 78.7623 24.9562 78.7623 22.791V13.3996C78.7623 12.9218 78.6735 12.5165 78.4925 12.1911C78.3152 11.871 78.0552 11.5863 77.7101 11.3474C77.4703 11.1886 77.1743 11.0746 76.8157 10.9958C76.4569 10.9289 76.0816 10.8752 75.6846 10.8501V9.53415L82.1756 9.05548L82.4728 9.33499V22.984C82.4728 24.406 82.7881 25.4742 83.4203 26.193C84.0511 26.9093 84.8072 27.2686 85.6894 27.2686C86.4117 27.2686 87.0564 27.1546 87.6222 26.9304C88.1891 26.7044 88.6618 26.4383 89.0438 26.1313C89.3996 25.861 89.7115 25.5607 89.9809 25.2497C90.251 24.9372 90.4579 24.6513 90.6025 24.3852V13.2539C90.6025 12.8155 90.5095 12.43 90.3255 12.098C90.1418 11.7528 89.8854 11.4669 89.5562 11.228C89.3206 11.0679 88.9673 10.9683 88.501 10.9433C88.0338 10.9027 87.5108 10.8752 86.9325 10.8501V9.53415L94.0159 9.05548L94.3116 9.33499V24.9164C94.3116 25.3689 94.4034 25.7534 94.5893 26.0723C94.7736 26.3913 95.0296 26.664 95.3579 26.8898C95.5941 27.0364 95.8776 27.1348 96.2059 27.1754C96.5352 27.2283 96.8977 27.2545 97.2925 27.2686V28.5836" fill="#4F5254"/>
    <path fill-rule="evenodd" clip-rule="evenodd" d="M73.9879 28.9433H64.4963V27.6286C64.799 27.602 65.1209 27.5748 65.4633 27.5351C65.8054 27.5088 66.0876 27.4551 66.3122 27.3897C66.6799 27.269 66.9564 27.0576 67.1401 26.765C67.3241 26.4595 67.4168 26.0737 67.4168 25.596V5.41717C67.4168 4.93941 67.3152 4.48701 67.1111 4.06179C66.907 3.65002 66.6406 3.31797 66.3122 3.0794C66.0745 2.92025 65.6406 2.77362 65.0099 2.64105C64.3776 2.50817 63.8711 2.42844 63.4902 2.40095V1.12683L70.8101 0.688477L71.0871 0.986616V25.3571C71.0871 25.8208 71.1726 26.2072 71.3438 26.4989C71.5143 26.8053 71.7908 27.0301 72.1722 27.1899C72.4612 27.3228 72.748 27.4224 73.0309 27.488C73.3135 27.5562 73.6321 27.602 73.9879 27.6286V28.9433" fill="#4F5254"/>
    <path fill-rule="evenodd" clip-rule="evenodd" d="M62.9378 28.5897C62.3192 28.8151 61.777 29.0014 61.3092 29.134C60.8417 29.2806 60.3132 29.3466 59.7212 29.3466C58.695 29.3466 57.8754 29.1078 57.2645 28.6159C56.6527 28.137 56.2615 27.427 56.0903 26.4969H55.9713C55.1163 27.4545 54.1996 28.1843 53.2189 28.6893C52.2397 29.1942 51.0581 29.4462 49.6764 29.4462C48.2163 29.4462 47.0168 28.995 46.0766 28.0911C45.1356 27.1882 44.665 26.0063 44.665 24.5446C44.665 23.7874 44.77 23.1104 44.9806 22.512C45.1914 21.9139 45.5075 21.376 45.9277 20.8973C46.2573 20.4996 46.6906 20.1403 47.2298 19.8355C47.7693 19.5169 48.2755 19.2713 48.7497 19.0849C49.3414 18.8595 50.5415 18.4398 52.3504 17.8298C54.1603 17.2182 55.3799 16.7395 56.0119 16.3944V14.4222C56.0119 14.249 55.9746 13.917 55.902 13.4264C55.8303 12.9346 55.6765 12.4687 55.4391 12.0316C55.1758 11.5386 54.8047 11.1082 54.3238 10.7486C53.8444 10.3763 53.163 10.1976 52.2821 10.1976C51.677 10.1976 51.1143 10.2972 50.5955 10.5098C50.0753 10.7083 49.7103 10.9283 49.4995 11.1543C49.4995 11.4204 49.562 11.8114 49.6877 12.3298C49.8119 12.8478 49.8748 13.3256 49.8748 13.7639C49.8748 14.2295 49.6676 14.6547 49.2526 15.039C48.8382 15.4248 48.2633 15.6175 47.5258 15.6175C46.8679 15.6175 46.3848 15.3842 46.0766 14.9064C45.7675 14.4421 45.6116 13.9106 45.6116 13.3256C45.6116 12.7153 45.8255 12.1303 46.2539 11.5725C46.6808 11.0147 47.2368 10.5165 47.9216 10.0781C48.5129 9.70576 49.2291 9.39357 50.0719 9.12842C50.9135 8.87519 51.7362 8.74261 52.5387 8.74261C53.6436 8.74261 54.6073 8.82265 55.4294 8.96836C56.2517 9.12842 56.9981 9.45375 57.6685 9.95778C58.3404 10.4508 58.8494 11.1201 59.1979 11.9571C59.5476 12.8075 59.7212 13.8898 59.7212 15.2189C59.7212 17.1195 59.7014 18.7981 59.662 20.2738C59.6224 21.7343 59.6022 23.3426 59.6022 25.0826C59.6022 25.6006 59.691 26.0127 59.8692 26.3182C60.0471 26.624 60.3196 26.8815 60.6885 27.095C60.8854 27.2135 61.1984 27.281 61.6253 27.2945C62.0522 27.3067 62.4904 27.3143 62.9378 27.3143V28.5897ZM56.0517 18.0691C54.9331 18.4011 53.9535 18.7265 53.111 19.0521C52.2694 19.3719 51.4874 19.7696 50.7632 20.2471C50.1057 20.6998 49.5863 21.2301 49.2043 21.8557C48.8234 22.4725 48.633 23.2108 48.633 24.06C48.633 25.1633 48.9186 25.9728 49.4899 26.4976C50.0629 27.0157 50.7901 27.2754 51.6711 27.2754C52.6048 27.2754 53.4272 27.0487 54.1375 26.5841C54.8482 26.1262 55.4463 25.5886 55.933 24.9572L56.0517 18.0691Z" fill="#4F5254"/>
    <path fill-rule="evenodd" clip-rule="evenodd" d="M43.6583 10.5099C43.0663 10.6162 42.5039 10.8353 41.9702 11.1542C41.438 11.4859 40.9809 12.0568 40.5998 12.8819C39.8229 14.661 39.0207 16.5213 38.1913 18.4476C37.3631 20.3867 36.5014 22.4123 35.6073 24.5381C35.3433 25.1493 35.0644 25.8736 34.7678 26.7106C34.4728 27.5476 34.1991 28.3507 33.9494 29.1207H32.41C31.1598 25.9998 30.0091 23.1488 28.9579 20.5871C27.9045 18.0083 26.8127 15.3788 25.6812 12.6824C25.4185 12.07 24.9937 11.5925 24.4088 11.2605C23.8229 10.9153 23.2346 10.7027 22.6426 10.6095V9.29477H31.6477V10.6895C31.2532 10.7027 30.7588 10.7815 30.1672 10.9416C29.5752 11.0873 29.2798 11.3008 29.2798 11.5659C29.2798 11.6066 29.3118 11.7129 29.3784 11.8717C29.4434 12.0382 29.5096 12.23 29.5752 12.4426C30.1107 13.7977 30.8742 15.6843 31.8571 18.1155C32.8412 20.5468 33.64 22.4991 34.2589 23.987C34.7327 22.8442 35.3281 21.4232 36.044 19.7229C36.7614 18.0291 37.5346 16.1294 38.3628 14.0375C38.4949 13.6783 38.6197 13.3398 38.7384 13.0276C38.8562 12.7151 38.9151 12.4029 38.9151 12.0852C38.9151 11.8586 38.8077 11.6603 38.5892 11.4728C38.3728 11.3008 38.1128 11.141 37.8101 11.0082C37.5077 10.8759 37.2114 10.776 36.9228 10.7091C36.6338 10.6425 36.3958 10.5964 36.2124 10.5689V9.29477H43.6583V10.5099" fill="#4F5254"/>
    <path fill-rule="evenodd" clip-rule="evenodd" d="M22.4613 27.5126C22.2303 27.4601 21.9579 27.366 21.6423 27.2334C21.2609 27.0734 20.9908 26.8488 20.8328 26.5693C20.6756 26.2767 20.5963 25.9046 20.5963 25.4397V15.218C20.5963 13.2655 20.1462 11.7054 19.2448 10.522C18.3434 9.35329 16.9583 8.76251 15.0915 8.76251C14.2499 8.76251 13.4934 8.86882 12.8209 9.0802C12.1505 9.29281 11.5722 9.55918 11.0846 9.87779C10.7105 10.1243 10.3092 10.4618 9.89453 10.8409V12.4285C9.95953 12.3814 9.9937 12.3158 10.063 12.2696C10.51 11.9507 11.0254 11.6779 11.6052 11.4644C12.1868 11.2399 12.8255 11.1324 13.5258 11.1324C14.4592 11.1324 15.2562 11.5114 15.9074 12.2696C16.5607 13.0254 16.8869 14.1025 16.8869 15.4972V25.5998C16.8869 26.0775 16.7981 26.4633 16.6202 26.7688C16.4417 27.0602 16.1692 27.2737 15.8006 27.3935C15.5641 27.472 15.2648 27.5258 14.9032 27.5533C14.541 27.5786 14.2093 27.6058 13.9066 27.6324V28.9471H23.4183V27.6324C23.0103 27.6058 22.6923 27.5655 22.4613 27.5126" fill="#E4002B"/>
    <path fill-rule="evenodd" clip-rule="evenodd" d="M10.0042 28.942H0.611817V27.6272C0.914216 27.6006 1.22669 27.5734 1.54831 27.5469C1.87115 27.5206 2.15036 27.4681 2.38685 27.3883C2.75577 27.2677 3.02765 27.0563 3.20616 26.7636C3.38437 26.4582 3.47256 26.0724 3.47256 25.5946V13.4784C3.47256 13.0544 3.37735 12.6622 3.18694 12.3094C2.99622 11.9654 2.72983 11.6663 2.38685 11.4275C2.13693 11.2674 1.77625 11.1284 1.30175 11.0221C0.82908 10.9014 0.394553 10.8358 0 10.8095V9.49384L6.86761 9.05549L7.14315 9.33499V25.3557C7.14315 25.8194 7.23134 26.2058 7.40527 26.5107C7.58317 26.8165 7.85902 27.0431 8.24168 27.1885C8.52821 27.3083 8.80742 27.4002 9.08296 27.4812C9.35607 27.5469 9.6661 27.6006 10.0042 27.6272V28.942ZM7.53739 2.5516C7.53739 3.30764 7.29114 3.96623 6.79833 4.53685C6.30521 5.09464 5.69553 5.38057 4.97264 5.38057C4.30132 5.38057 3.71971 5.10778 3.22538 4.57626C2.73348 4.03191 2.48662 3.42066 2.48662 2.72908C2.48662 1.99961 2.73348 1.36179 3.22538 0.81744C3.71971 0.271564 4.30132 0 4.97264 0C5.72238 0 6.33756 0.25965 6.81725 0.763677C7.29785 1.28176 7.53739 1.87376 7.53739 2.5516Z" fill="#4F5254"/>
</svg>
